PathFileType	4	(X/Y/Z)	c:/Users/goper/Files/vsCode/490R/osim_files/A01/A01_Slow_01.trc
DataRate	CameraRate	NumFrames	NumMarkers	Units                	OrigDataRate	OrigDataStartFrame	OrigNumFrames
120.00	120.00	11	36	mm	120.0	642	1710
                Frame#	Time	Mobility_markerset:LPSIS			Mobility_markerset:LASIS			Mobility_markerset:LTH1			Mobility_markerset:LTH2			Mobility_markerset:LTH3			Mobility_markerset:LTH4			Mobility_markerset:LLFE			Mobility_markerset:LMFE			Mobility_markerset:LSH1			Mobility_markerset:LSH2			Mobility_markerset:LSH3			Mobility_markerset:LSH4			Mobility_markerset:LLMAL			Mobility_markerset:LMMAL			Mobility_markerset:LCAL			Mobility_markerset:LMTP5			Mobility_markerset:LTOE			Mobility_markerset:LMTP1			Mobility_markerset:RPSIS			Mobility_markerset:RASIS			Mobility_markerset:RTH1			Mobility_markerset:RTH2			Mobility_markerset:RTH3			Mobility_markerset:RTH4			Mobility_markerset:RLFE			Mobility_markerset:RMFE			Mobility_markerset:RSH1			Mobility_markerset:RSH2			Mobility_markerset:RSH3			Mobility_markerset:RSH4			Mobility_markerset:RLMAL			Mobility_markerset:RMMAL			Mobility_markerset:RCAL			Mobility_markerset:RMTP1			Mobility_markerset:RTOE			Mobility_markerset:RMTP5		
		X1	Y1	Z1	X2	Y2	Z2	X3	Y3	Z3	X4	Y4	Z4	X5	Y5	Z5	X6	Y6	Z6	X7	Y7	Z7	X8	Y8	Z8	X9	Y9	Z9	X10	Y10	Z10	X11	Y11	Z11	X12	Y12	Z12	X13	Y13	Z13	X14	Y14	Z14	X15	Y15	Z15	X16	Y16	Z16	X17	Y17	Z17	X18	Y18	Z18	X19	Y19	Z19	X20	Y20	Z20	X21	Y21	Z21	X22	Y22	Z22	X23	Y23	Z23	X24	Y24	Z24	X25	Y25	Z25	X26	Y26	Z26	X27	Y27	Z27	X28	Y28	Z28	X29	Y29	Z29	X30	Y30	Z30	X31	Y31	Z31	X32	Y32	Z32	X33	Y33	Z33	X34	Y34	Z34	X35	Y35	Z35	X36	Y36	Z36

642	5.34167	672.08459	1046.03198	322.31537	434.52847	1026.80774	408.07239	402.63452	722.18579	478.75305	375.71475	683.28363	472.60355	353.08554	753.74969	472.07727	332.91547	712.83044	463.83023	315.24136	574.52185	435.16183	0.00000	0.00000	0.00000	369.00455	414.77814	421.25507	374.06622	367.69177	423.85672	308.29816	403.10315	427.25278	324.44702	360.59015	428.96786	382.82745	114.13145	408.91208	383.17590	112.43256	324.21167	460.98453	92.43224	358.88751	253.44604	50.87278	444.20093	218.13211	70.29517	379.51669	240.39030	57.49094	344.34311	669.89355	1048.03394	220.24600	436.98962	997.92920	148.33618	592.24200	676.38898	97.79600	583.22021	634.11401	106.56447	528.73907	680.50781	96.75990	530.90601	638.39069	103.49233	547.54010	494.64941	153.68668	533.69067	513.90399	272.49054	665.39783	309.28854	168.19745	668.25146	264.58994	172.20692	603.47491	297.44171	162.97276	615.29291	255.04448	166.79427	659.75476	82.68631	215.97643	633.33258	111.27926	296.16473	712.54333	63.54967	270.66025	508.39862	47.94065	312.41302	473.35083	60.29140	266.25391	525.51813	28.01361	201.93466
643	5.35000	662.89636	1045.39990	324.04395	424.26221	1025.98767	406.84494	391.83649	721.25128	477.26901	365.65088	682.13275	470.92688	342.39252	752.60193	469.86148	322.51132	711.70380	461.38208	303.44894	574.19397	432.72183	0.00000	0.00000	0.00000	350.23267	412.27280	419.21255	353.06165	364.96161	421.83536	288.86325	403.21780	424.49545	303.33133	360.18176	426.59918	350.88904	110.85352	406.96902	351.54291	108.99683	321.32010	428.89908	86.17642	357.98563	218.86819	53.61641	441.09332	185.11671	74.45782	376.02133	207.25722	60.55473	341.14825	661.41577	1047.68445	221.90440	429.54654	996.77637	146.92043	587.03107	676.54144	97.62606	578.36884	634.13971	106.33279	523.54651	680.09375	96.88734	526.15552	637.93713	103.57687	544.89166	494.38437	153.33086	530.08350	513.03259	272.16986	664.29230	309.96484	168.43204	667.38910	265.28568	172.46892	0.00000	0.00000	0.00000	614.60730	255.21478	166.62076	659.69891	82.98779	215.99405	632.75098	111.45148	295.94635	712.37952	63.89137	270.71591	508.36960	48.05544	311.88055	473.20325	60.05270	265.91476	525.52460	27.78782	201.71210
644	5.35833	653.55676	1044.73035	325.68948	414.09995	1025.16150	405.64975	381.42175	719.94843	475.78058	354.11826	681.64905	468.53775	332.04181	751.37756	467.84326	312.27164	710.39398	459.04556	291.43015	573.88538	429.86609	0.00000	0.00000	0.00000	331.58517	409.80164	416.92191	332.44827	362.49194	419.73941	269.79099	403.44791	421.61020	282.48495	359.76059	423.73206	319.87000	108.79084	404.77045	322.33224	107.60453	319.73068	397.05203	80.60848	356.66614	184.97971	56.97543	437.48703	152.89894	79.27760	372.07996	174.83661	64.39500	337.41782	652.87714	1047.31360	223.53261	422.34378	995.36420	145.57278	581.67761	676.54572	97.43422	573.57562	634.16003	106.22438	518.19781	679.61383	96.99055	521.18365	637.48083	103.71166	541.75909	493.96262	152.99956	525.97675	511.92001	271.99243	662.64166	310.41736	168.71037	666.28308	265.88022	172.62120	601.22491	297.65814	162.57137	613.56464	255.39165	166.49632	659.56140	83.35346	216.06396	632.32709	111.69713	295.92001	712.17322	64.29947	270.75690	508.26401	48.00687	311.65436	472.99271	59.85521	265.59961	525.51447	27.60957	201.49985
645	5.36667	644.10211	1044.09290	327.25806	403.97556	1024.04272	404.56662	371.20163	718.47620	474.37808	343.90460	680.01965	466.68185	321.74405	749.82959	465.76700	302.17877	708.70880	456.69000	279.69315	573.10706	427.08881	0.00000	0.00000	0.00000	313.16721	407.52182	414.54785	312.07971	360.20154	417.38086	251.22758	403.73047	418.53540	260.08493	358.57925	418.59348	289.51208	107.76012	402.24268	292.31110	105.53446	317.68115	365.73022	75.91059	354.86884	152.14874	61.06615	433.43872	121.56520	84.65282	367.68207	143.51505	69.11786	333.09387	644.18536	1046.90955	225.08034	414.05008	994.55682	144.58691	576.65601	676.61340	97.12652	568.47961	633.93005	106.07620	512.46729	678.71301	97.04933	516.30835	636.94080	103.77903	538.41034	493.58401	152.76183	522.10931	511.48993	271.65924	660.86993	311.00961	168.85562	664.82654	266.41440	172.79507	0.00000	0.00000	0.00000	612.60297	255.41524	166.71193	659.39075	83.78307	216.15625	631.95490	111.94366	295.94089	712.01807	64.79199	270.78464	508.51193	48.19487	311.91687	472.84308	59.64320	265.33124	525.53693	27.47517	201.26610
646	5.37500	634.47754	1043.37158	328.76584	393.64221	1022.85034	403.53046	361.11536	716.72961	472.94305	333.91400	678.32709	465.01144	311.57013	747.95117	463.67981	292.32034	706.77930	454.51273	268.14706	572.14771	424.34576	0.00000	0.00000	0.00000	295.16162	405.39835	412.13272	292.50818	358.50546	415.02576	232.96342	404.01901	415.38559	240.24048	358.57297	415.65665	260.09836	107.08942	399.67963	263.06491	104.42250	314.72311	334.92331	71.97367	352.69406	120.26744	65.70400	429.01450	91.22247	90.50584	362.94016	112.73176	74.01305	328.51703	635.33612	1046.47437	226.60326	406.04401	993.53033	143.42091	571.24182	676.34656	97.07161	563.49512	633.64758	105.98971	507.08728	678.10010	97.08947	511.78857	636.37842	103.90628	534.57495	493.04544	152.72023	518.05579	510.67850	271.46698	658.82452	311.48727	168.98296	663.20215	266.93967	172.92642	598.10034	298.00809	162.28268	610.64838	255.64455	166.40109	659.15625	84.19075	216.28841	631.58557	112.44071	296.10608	711.90680	65.34288	270.83258	508.37082	48.00459	311.70853	472.72552	59.38192	265.16861	525.47284	27.26698	201.08916
647	5.38333	624.67676	1042.60815	330.21207	383.34821	1021.42609	402.47653	351.24942	714.77856	471.51898	324.01425	676.28784	463.39069	301.47168	745.90643	461.82224	282.55844	704.73547	452.39130	256.81308	570.69067	422.00803	0.00000	0.00000	0.00000	277.50409	403.31378	409.59909	272.55923	356.27145	412.38965	215.16994	404.36249	412.23297	220.64265	358.78333	412.42972	231.08534	106.69553	396.36038	234.71288	103.90565	311.49438	304.77783	68.60062	350.14807	89.30795	70.67470	424.22556	61.66711	96.78906	357.67538	83.18526	79.36797	323.67566	626.34454	1046.01868	228.06007	398.09000	992.59033	142.25267	565.46625	675.95074	97.14975	558.34961	633.32068	105.92000	502.29984	677.65820	96.90950	505.93796	635.57312	103.83870	530.62512	492.40060	152.80685	513.71490	509.89395	271.40143	656.68024	312.01263	168.97653	661.35162	267.52402	173.07710	596.16272	298.03281	162.36157	608.94696	255.75177	166.52274	658.85181	84.67700	216.46603	630.96161	112.71677	296.25269	711.65479	65.90446	270.93369	508.07361	47.57622	311.52948	472.51349	58.97407	265.08047	525.42517	27.11413	200.89391
648	5.39167	614.84198	1041.72791	331.57565	373.14737	1019.81122	401.51611	341.54926	712.45380	470.25974	314.54739	673.94647	461.64825	291.95782	743.63593	460.15512	273.07559	702.38153	450.25577	0.00000	0.00000	0.00000	0.00000	0.00000	0.00000	260.12274	401.18271	406.99921	253.50786	354.46066	409.80887	197.97646	404.63010	408.95886	201.46220	358.66333	409.23669	202.49536	106.54238	392.85086	207.07237	103.82415	307.93539	275.31906	65.74055	347.40231	59.27239	75.91138	419.05774	33.41969	103.13044	352.31134	54.68145	84.93877	318.50775	617.17932	1045.39575	229.55962	389.60175	991.61255	141.65446	559.89404	675.57513	97.11974	553.19647	632.90186	106.03701	497.38419	677.20508	96.56441	500.63113	634.75659	103.86302	526.37976	491.66617	152.92305	509.45660	509.09384	271.50278	654.29486	312.50620	169.07983	659.52258	268.13412	173.25555	594.88892	298.97754	161.45769	606.98517	255.77240	166.71806	658.44012	85.16737	216.74088	630.38605	112.91858	296.48441	711.40607	66.46951	271.15863	507.96942	47.45620	311.71707	472.24493	58.35284	265.08856	525.29138	26.91974	200.80521
649	5.40000	604.78015	1040.73950	332.85062	362.83856	1018.00269	400.55630	331.82236	710.08868	469.04370	305.01517	671.58698	459.96213	282.31030	741.09985	458.40079	263.59152	699.87463	448.09909	0.00000	0.00000	0.00000	0.00000	0.00000	0.00000	243.26543	399.07443	404.52652	234.80991	352.54578	407.21283	181.12891	404.71863	405.74155	183.09048	358.68979	405.88199	174.85880	106.72566	389.09055	180.32857	104.03355	304.19315	246.70880	63.41157	344.38324	30.08938	81.65427	413.80399	6.13575	109.59873	346.84421	27.39810	90.76016	312.91275	607.94312	1044.68640	230.90785	381.39417	990.23816	140.68390	554.33179	675.13702	97.22600	547.86963	632.40894	106.04781	491.36215	676.42896	96.68180	495.30063	633.85529	103.86782	522.07178	490.96005	153.11780	504.72791	508.00031	271.32318	651.62408	312.88229	169.40121	657.44458	268.61249	173.54202	591.64252	297.88858	162.72459	604.90778	255.69229	166.99939	657.85620	85.67936	217.13766	629.75604	112.97208	296.83701	711.04370	66.97751	271.47861	507.65475	46.86526	311.75439	471.92047	57.62094	265.20605	525.22864	26.83998	200.70673
650	5.40833	594.62518	1039.65576	334.00125	352.62469	1016.09442	399.62668	322.49417	707.49384	467.64111	295.76318	668.97626	458.15137	272.83261	738.37909	456.52713	254.41730	697.25464	445.91943	0.00000	0.00000	0.00000	0.00000	0.00000	0.00000	226.98169	396.97473	401.84491	216.95508	350.92422	404.42969	164.90388	404.71585	402.58240	165.25586	358.54138	402.58237	148.19130	107.24402	385.29950	154.32967	104.55671	300.27866	218.76401	61.36892	341.10028	2.56846	87.26418	408.52359	-19.92126	116.26548	341.40668	0.81195	96.77789	307.71478	598.58124	1043.83459	232.12906	372.89896	989.12585	139.70049	548.52136	674.58759	97.42204	542.49011	631.92120	106.27629	484.75061	675.06818	97.27673	490.15579	633.20837	103.47756	517.56946	490.14471	153.35999	500.15411	507.50125	271.78448	648.94324	313.29797	169.71449	655.36932	269.16467	173.91766	590.14246	298.89374	161.88203	602.78595	255.68982	167.35657	657.95898	86.35969	217.72308	629.06061	113.21873	297.10764	710.71063	67.60119	271.81262	507.46552	46.39005	311.90643	471.68875	56.95703	265.41406	525.08868	26.77104	200.66643
651	5.41667	584.36035	1038.51147	334.96255	342.32040	1014.09064	398.84799	313.06796	704.91345	466.25336	286.76126	666.35303	456.28882	263.44919	735.86481	454.67792	245.42786	694.50427	443.53238	0.00000	0.00000	0.00000	0.00000	0.00000	0.00000	211.51564	394.92432	399.09360	199.65175	349.01523	401.59384	149.75369	404.72949	399.34094	148.54190	358.73569	399.43332	122.39867	107.85753	381.68069	129.33646	105.33807	296.34546	191.95149	59.88116	337.59106	-23.72802	93.11608	403.51395	-44.62015	123.03218	336.38895	-24.22601	102.88338	302.68457	589.21631	1043.00586	233.30528	364.37027	987.79626	139.18068	542.66144	674.15509	97.72215	536.83606	631.29742	106.55924	479.18936	673.72675	96.76573	484.38788	631.92792	103.86863	512.97650	489.33975	153.61238	494.82639	506.24033	271.78882	646.05530	313.74863	170.18742	653.13324	269.79205	174.49573	586.40839	297.53503	163.48099	600.49097	255.65491	167.85188	656.76080	86.82061	218.13826	628.37500	113.68291	297.86609	710.31976	68.30571	272.27792	507.28723	45.83564	312.12402	471.34970	56.19942	265.64877	524.94220	26.73969	200.66951
652	5.42500	574.31262	1037.49097	335.94009	331.92023	1012.03064	397.97925	303.81018	702.31921	464.87241	277.73248	663.72046	454.59192	254.05653	733.02966	452.70523	236.70312	691.52942	441.40906	0.00000	0.00000	0.00000	0.00000	0.00000	0.00000	196.49196	392.72952	396.16919	183.12997	347.24197	398.47812	135.34108	404.61383	396.15002	132.56001	358.72098	396.21237	98.14265	108.86088	377.83762	105.49874	106.40494	292.47528	166.13257	58.57973	333.94815	-48.59698	98.98872	398.87921	-68.11387	129.76674	331.68332	-48.36263	109.15160	297.98227	579.68341	1042.06372	234.34662	355.81836	986.36749	138.29065	536.69391	673.56500	98.13620	531.18616	630.75793	106.98817	472.17984	672.51349	97.42905	478.62686	630.93079	103.95280	508.09985	488.50201	153.80893	489.73624	506.03766	272.09030	643.24677	314.36200	170.74867	650.17969	270.31668	174.71507	584.72766	298.61688	162.80956	598.25153	255.71489	168.31590	656.15228	87.58764	218.63968	627.38269	113.72636	298.26108	709.96289	69.11230	272.67545	506.93542	45.25877	312.37546	470.98071	55.44881	265.88608	524.83838	26.76710	200.71095
